<?xml version="1.0" encoding="UTF-8"?>
<svg id="Layer_2" data-name="Layer 2" xmlns="http://www.w3.org/2000/svg" viewBox="0 0 649.79 173.6">
  <defs>
    <style>
      .cls-1 {
        fill: #5e4cdc;
      }

      .cls-2 {
        fill: #fff;
      }
    </style>
  </defs>
  <g id="Layer_1-2" data-name="Layer 1">
    <g>
      <g>
        <path class="cls-2" d="M212.73,116.24c-16.11,0-29.23-13.11-29.23-29.23s13.11-29.06,29.23-29.06c14.83,0,31.03,12.43,28.8,33.17h-44.74c1.63,8.14,8.23,13.97,15.94,13.97,6.26,0,11.83-3.86,14.48-9.86h13.37c-3.51,12.08-14.66,21-27.86,21ZM227.9,80.76c-2.23-7.03-8.23-11.66-15.17-11.66s-13.11,4.71-15.43,11.74l30.6-.09Z"/>
        <path class="cls-2" d="M291.93,114.62v-5.49c-2.49,3.09-9.77,7.11-17.57,7.11-14.4,0-27.51-13.11-27.51-29.23s13.11-29.06,29.23-29.06,28.28,13.03,28.28,29.06v27.6h-12.43ZM276.07,105.1c8.91,0,16.37-7.8,16.37-18.08s-7.46-17.91-16.37-17.91-16.37,7.71-16.37,17.91,7.46,18.08,16.37,18.08Z"/>
        <path class="cls-2" d="M333.16,105.19c5.4,0,8.66-2.66,8.66-6.17,0-12.26-29.74-3.43-29.74-25.11,0-9.34,8.66-16.37,20.23-16.37s20.66,7.97,20.66,17.48h-12.86c0-3.17-3.34-6.34-7.8-6.34s-7.8,2.23-7.8,5.23c0,10.71,30.17,4.11,30.17,23.74,0,10.71-9.6,18.68-22.37,18.68s-21.94-9.09-21.94-21.17h12.43c0,5.74,3.26,10.03,10.37,10.03Z"/>
        <path class="cls-2" d="M369.93,58.9l15.86,40.2,16.03-40.2h12.43l-28.97,72.85h-12.43l6.86-17.14h-.17l-22.28-55.71h12.68Z"/>
        <path class="cls-2" d="M432.67,46.05v12.86h10.2v11.14h-10.2v44.57h-12.43V46.05h12.43Z"/>
        <path class="cls-2" d="M475.53,116.24c-16.11,0-29.23-13.11-29.23-29.23s13.11-29.06,29.23-29.06c14.83,0,31.03,12.43,28.8,33.17h-44.74c1.63,8.14,8.23,13.97,15.94,13.97,6.26,0,11.83-3.86,14.48-9.86h13.37c-3.51,12.08-14.66,21-27.86,21ZM490.7,80.76c-2.23-7.03-8.23-11.66-15.17-11.66s-13.11,4.71-15.43,11.74l30.6-.09Z"/>
        <path class="cls-2" d="M538.87,116.24c-16.11,0-29.23-13.11-29.23-29.23s13.11-29.06,29.23-29.06c14.83,0,27.08,11.14,28.8,25.46h-12.94c-1.46-8.49-8.06-14.31-15.86-14.31-8.91,0-16.37,7.71-16.37,17.91s7.46,18.08,16.37,18.08c7.37,0,13.8-5.4,15.68-13.28h12.94c-2.23,13.8-14.23,24.43-28.63,24.43Z"/>
        <path class="cls-2" d="M575.39,46.05h12.43v19.8c1.71-3.86,6.6-8.14,16.03-8.14,11.83,0,21.94,9.77,21.94,24.34v32.57h-12.43v-32.57c0-7.97-5.14-13.28-12.77-13.28s-12.77,5.31-12.77,13.28v32.57h-12.43V46.05Z"/>
        <path class="cls-1" d="M632.65,106.73c0-4.89,3.69-8.57,8.57-8.57s8.57,3.69,8.57,8.57-3.69,8.57-8.57,8.57-8.57-3.69-8.57-8.57Z"/>
      </g>
      <g>
        <path class="cls-2" d="M432.2,135.06c0-2.95-1.71-4.43-5.13-4.43-1.43,0-2.57.31-3.4.94-.83.62-1.25,1.47-1.25,2.54,0,.31.03.59.09.85.06.26.17.49.34.69s.31.38.45.54c.13.15.34.3.62.45s.5.26.66.34.42.17.78.28c.36.1.61.17.75.2.14.03.42.09.81.18.4.09.64.15.72.17,1.89.45,3.16.87,3.81,1.26,1.19.72,1.78,1.75,1.78,3.11s-.54,2.41-1.63,3.24c-1.09.83-2.5,1.25-4.24,1.25-1.99,0-3.52-.51-4.58-1.52-1.07-1.01-1.6-2.46-1.6-4.35h.65c0,3.48,1.85,5.23,5.56,5.23,1.54,0,2.79-.36,3.77-1.08.97-.72,1.46-1.64,1.46-2.77,0-.8-.3-1.48-.91-2.03s-1.15-.91-1.63-1.06c-.48-.15-1.23-.35-2.26-.6-.14-.04-.26-.07-.34-.09-.04,0-.28-.05-.72-.15s-.71-.17-.8-.2c-.09-.03-.34-.1-.74-.21-.4-.11-.66-.2-.78-.26s-.35-.16-.68-.31c-.33-.14-.55-.28-.68-.4s-.29-.28-.51-.48c-.21-.19-.37-.39-.46-.6-.09-.21-.17-.45-.25-.72-.07-.28-.11-.57-.11-.88,0-1.29.48-2.3,1.45-3.03.96-.73,2.29-1.09,4-1.09s3.14.43,4.14,1.29c.99.86,1.49,2.1,1.49,3.72h-.65Z"/>
        <path class="cls-2" d="M462.99,132.31c1.27,1.53,1.91,3.57,1.91,6.13s-.64,4.49-1.92,5.96c-1.28,1.48-3.01,2.21-5.18,2.21s-3.87-.75-5.15-2.26-1.92-3.52-1.92-6.04.66-4.51,1.97-6.03c1.31-1.52,3.04-2.28,5.2-2.28s3.83.76,5.1,2.29ZM453.13,132.73c-1.2,1.42-1.8,3.27-1.8,5.57s.59,4.24,1.77,5.64c1.18,1.4,2.75,2.11,4.72,2.11s3.5-.69,4.67-2.06c1.17-1.37,1.75-3.22,1.75-5.54s-.58-4.28-1.74-5.7-2.71-2.14-4.66-2.14-3.52.71-4.72,2.12Z"/>
        <path class="cls-2" d="M483.47,146.16h-.61v-21.89h.61v21.89Z"/>
        <path class="cls-2" d="M514.13,146.16h-.62v-3.72c-1.09,2.81-2.98,4.21-5.69,4.21-1.8,0-3.2-.56-4.2-1.68s-1.49-2.6-1.49-4.44v-10.12h.65v9.47c0,1.05.04,1.81.11,2.29.07.48.24.97.51,1.46.39.76.98,1.36,1.78,1.8.8.44,1.69.66,2.67.66,1.76,0,3.14-.66,4.14-1.98s1.49-2.88,1.49-4.69v-9.01h.65v15.74Z"/>
        <path class="cls-2" d="M538.27,131.01h-3.47v11.38c0,.49,0,.83.02,1.01,0,.18.05.46.11.82.06.36.16.61.31.77.14.15.36.3.66.43.3.13.66.2,1.09.2.35,0,.78-.04,1.29-.12v.62c-.51.08-.93.12-1.26.12-.68,0-1.22-.09-1.63-.28-.41-.18-.7-.49-.86-.91s-.27-.81-.31-1.17c-.04-.36-.06-.88-.06-1.55v-11.31h-2.95v-.58h2.95v-4.95h.65v4.95h3.47v.58Z"/>
        <path class="cls-2" d="M556.39,127.41h-.65v-3.14h.65v3.14ZM556.39,146.16h-.65v-15.74h.65v15.74Z"/>
        <path class="cls-2" d="M586.62,132.31c1.27,1.53,1.91,3.57,1.91,6.13s-.64,4.49-1.92,5.96c-1.28,1.48-3.01,2.21-5.18,2.21s-3.87-.75-5.15-2.26-1.92-3.52-1.92-6.04.66-4.51,1.97-6.03c1.31-1.52,3.04-2.28,5.2-2.28s3.83.76,5.1,2.29ZM576.76,132.73c-1.2,1.42-1.8,3.27-1.8,5.57s.59,4.24,1.77,5.64c1.18,1.4,2.75,2.11,4.72,2.11s3.5-.69,4.67-2.06c1.17-1.37,1.75-3.22,1.75-5.54s-.58-4.28-1.74-5.7-2.71-2.14-4.66-2.14-3.52.71-4.72,2.12Z"/>
        <path class="cls-2" d="M607.07,134.39c.39-1.29,1.11-2.34,2.17-3.14,1.05-.8,2.28-1.2,3.67-1.2,1.84,0,3.26.52,4.24,1.55.98,1.04,1.48,2.42,1.48,4.17v10.39h-.65v-10.18c0-1.6-.41-2.89-1.21-3.87-.81-.98-2.08-1.48-3.8-1.48-1.99,0-3.46.67-4.43,2.01-.96,1.34-1.45,2.94-1.45,4.78v8.73h-.65v-15.74h.62v3.97Z"/>
        <path class="cls-2" d="M647.54,135.06c0-2.95-1.71-4.43-5.13-4.43-1.43,0-2.57.31-3.4.94-.83.62-1.25,1.47-1.25,2.54,0,.31.03.59.09.85.06.26.17.49.34.69s.31.38.45.54c.13.15.34.3.62.45s.5.26.66.34.42.17.78.28c.36.1.61.17.75.2.14.03.42.09.81.18.4.09.64.15.72.17,1.89.45,3.16.87,3.81,1.26,1.19.72,1.78,1.75,1.78,3.11s-.54,2.41-1.63,3.24c-1.09.83-2.5,1.25-4.24,1.25-1.99,0-3.52-.51-4.58-1.52-1.07-1.01-1.6-2.46-1.6-4.35h.65c0,3.48,1.85,5.23,5.56,5.23,1.54,0,2.79-.36,3.77-1.08.97-.72,1.46-1.64,1.46-2.77,0-.8-.3-1.48-.91-2.03s-1.15-.91-1.63-1.06c-.48-.15-1.23-.35-2.26-.6-.14-.04-.26-.07-.34-.09-.04,0-.28-.05-.72-.15s-.71-.17-.8-.2c-.09-.03-.34-.1-.74-.21-.4-.11-.66-.2-.78-.26s-.35-.16-.68-.31c-.33-.14-.55-.28-.68-.4s-.29-.28-.51-.48c-.21-.19-.37-.39-.46-.6-.09-.21-.17-.45-.25-.72-.07-.28-.11-.57-.11-.88,0-1.29.48-2.3,1.45-3.03.96-.73,2.29-1.09,4-1.09s3.14.43,4.14,1.29c.99.86,1.49,2.1,1.49,3.72h-.65Z"/>
      </g>
      <g>
        <path class="cls-1" d="M94.99,37.15C66.38,74.28,23.38,130.05,0,160.2V60.79l23.64-23.64h71.35Z"/>
        <polygon class="cls-1" points="132.74 76.25 132.74 152.33 111.46 173.6 17.87 173.6 132.74 76.25"/>
        <path class="cls-1" d="M166.51,0v47.62l-33.77,28.63v-39.09h-37.75C111.78,15.36,123.61,0,123.61,0h42.89Z"/>
      </g>
    </g>
  </g>
</svg>